<mxfile host="app.diagrams.net" modified="2020-09-23T08:38:40.511Z" agent="5.0 (Windows NT 10.0; Win64; x64) AppleWebKit/537.36 (KHTML, like Gecko) Chrome/85.0.4183.121 Safari/537.36" etag="kNBYK9OmEyVBLhxjZ2FF" version="13.7.4" type="github">
  <diagram id="FPmr122zrvJq5NRcY5wi" name="Page-1">
    <mxGraphModel dx="1640" dy="941" grid="1" gridSize="10" guides="1" tooltips="1" connect="1" arrows="1" fold="1" page="1" pageScale="1" pageWidth="827" pageHeight="1169" math="0" shadow="0">
      <root>
        <mxCell id="0" />
        <mxCell id="1" parent="0" />
        <mxCell id="BwX4vjp6zsM9y9sXOh-W-115" value="" style="rounded=0;whiteSpace=wrap;html=1;" parent="1" vertex="1">
          <mxGeometry x="50" y="20" width="750" height="790" as="geometry" />
        </mxCell>
        <mxCell id="BwX4vjp6zsM9y9sXOh-W-3" value="" style="endArrow=none;html=1;entryX=1.001;entryY=0.089;entryDx=0;entryDy=0;entryPerimeter=0;" parent="1" edge="1">
          <mxGeometry width="50" height="50" relative="1" as="geometry">
            <mxPoint x="50" y="81" as="sourcePoint" />
            <mxPoint x="800.75" y="81.20000000000005" as="targetPoint" />
          </mxGeometry>
        </mxCell>
        <mxCell id="BwX4vjp6zsM9y9sXOh-W-4" value="logo" style="text;html=1;strokeColor=none;fillColor=none;align=center;verticalAlign=middle;whiteSpace=wrap;rounded=0;" parent="1" vertex="1">
          <mxGeometry x="170" y="40" width="40" height="20" as="geometry" />
        </mxCell>
        <mxCell id="BwX4vjp6zsM9y9sXOh-W-5" value="search" style="rounded=1;whiteSpace=wrap;html=1;" parent="1" vertex="1">
          <mxGeometry x="260" y="35" width="260" height="30" as="geometry" />
        </mxCell>
        <mxCell id="BwX4vjp6zsM9y9sXOh-W-6" value="notice" style="ellipse;whiteSpace=wrap;html=1;rounded=0;" parent="1" vertex="1">
          <mxGeometry x="600" y="35" width="30" height="30" as="geometry" />
        </mxCell>
        <mxCell id="BwX4vjp6zsM9y9sXOh-W-7" value="logo" style="ellipse;whiteSpace=wrap;html=1;rounded=0;" parent="1" vertex="1">
          <mxGeometry x="640" y="35" width="30" height="30" as="geometry" />
        </mxCell>
        <mxCell id="BwX4vjp6zsM9y9sXOh-W-15" value="add" style="ellipse;whiteSpace=wrap;html=1;rounded=0;" parent="1" vertex="1">
          <mxGeometry x="560" y="35" width="30" height="30" as="geometry" />
        </mxCell>
        <mxCell id="BwX4vjp6zsM9y9sXOh-W-37" value="" style="rounded=1;whiteSpace=wrap;html=1;" parent="1" vertex="1">
          <mxGeometry x="170" y="90" width="90" height="120" as="geometry" />
        </mxCell>
        <mxCell id="BwX4vjp6zsM9y9sXOh-W-38" value="" style="rounded=1;whiteSpace=wrap;html=1;" parent="1" vertex="1">
          <mxGeometry x="275" y="90" width="90" height="120" as="geometry" />
        </mxCell>
        <mxCell id="BwX4vjp6zsM9y9sXOh-W-39" value="" style="rounded=1;whiteSpace=wrap;html=1;" parent="1" vertex="1">
          <mxGeometry x="380" y="90" width="90" height="120" as="geometry" />
        </mxCell>
        <mxCell id="BwX4vjp6zsM9y9sXOh-W-40" value="" style="rounded=1;whiteSpace=wrap;html=1;" parent="1" vertex="1">
          <mxGeometry x="485" y="90" width="90" height="120" as="geometry" />
        </mxCell>
        <mxCell id="BwX4vjp6zsM9y9sXOh-W-41" value="" style="rounded=1;whiteSpace=wrap;html=1;" parent="1" vertex="1">
          <mxGeometry x="590" y="90" width="90" height="120" as="geometry" />
        </mxCell>
        <mxCell id="BwX4vjp6zsM9y9sXOh-W-42" value="" style="endArrow=none;html=1;" parent="1" edge="1">
          <mxGeometry width="50" height="50" relative="1" as="geometry">
            <mxPoint x="50" y="220" as="sourcePoint" />
            <mxPoint x="800" y="220" as="targetPoint" />
          </mxGeometry>
        </mxCell>
        <mxCell id="BwX4vjp6zsM9y9sXOh-W-58" value="" style="rounded=1;whiteSpace=wrap;html=1;" parent="1" vertex="1">
          <mxGeometry x="260" y="610" width="90" height="170" as="geometry" />
        </mxCell>
        <mxCell id="BwX4vjp6zsM9y9sXOh-W-59" value="" style="rounded=1;whiteSpace=wrap;html=1;" parent="1" vertex="1">
          <mxGeometry x="460" y="610" width="90" height="170" as="geometry" />
        </mxCell>
        <mxCell id="BwX4vjp6zsM9y9sXOh-W-60" value="" style="rounded=1;whiteSpace=wrap;html=1;" parent="1" vertex="1">
          <mxGeometry x="660" y="610" width="90" height="170" as="geometry" />
        </mxCell>
        <mxCell id="BwX4vjp6zsM9y9sXOh-W-64" value="" style="endArrow=none;html=1;" parent="1" edge="1">
          <mxGeometry width="50" height="50" relative="1" as="geometry">
            <mxPoint x="240" y="810" as="sourcePoint" />
            <mxPoint x="240" y="220" as="targetPoint" />
          </mxGeometry>
        </mxCell>
        <mxCell id="BwX4vjp6zsM9y9sXOh-W-66" value="" style="rounded=1;whiteSpace=wrap;html=1;" parent="1" vertex="1">
          <mxGeometry x="60" y="280" width="170" height="30" as="geometry" />
        </mxCell>
        <mxCell id="BwX4vjp6zsM9y9sXOh-W-67" value="" style="rounded=1;whiteSpace=wrap;html=1;" parent="1" vertex="1">
          <mxGeometry x="60" y="360" width="170" height="30" as="geometry" />
        </mxCell>
        <mxCell id="BwX4vjp6zsM9y9sXOh-W-68" value="" style="rounded=1;whiteSpace=wrap;html=1;" parent="1" vertex="1">
          <mxGeometry x="60" y="320" width="170" height="30" as="geometry" />
        </mxCell>
        <mxCell id="BwX4vjp6zsM9y9sXOh-W-69" value="" style="rounded=1;whiteSpace=wrap;html=1;" parent="1" vertex="1">
          <mxGeometry x="60" y="360" width="170" height="30" as="geometry" />
        </mxCell>
        <mxCell id="BwX4vjp6zsM9y9sXOh-W-70" value="" style="rounded=1;whiteSpace=wrap;html=1;" parent="1" vertex="1">
          <mxGeometry x="60" y="320" width="170" height="30" as="geometry" />
        </mxCell>
        <mxCell id="BwX4vjp6zsM9y9sXOh-W-73" value="" style="rounded=1;whiteSpace=wrap;html=1;" parent="1" vertex="1">
          <mxGeometry x="60" y="400" width="170" height="30" as="geometry" />
        </mxCell>
        <mxCell id="BwX4vjp6zsM9y9sXOh-W-77" value="" style="rounded=1;whiteSpace=wrap;html=1;" parent="1" vertex="1">
          <mxGeometry x="60" y="710" width="170" height="30" as="geometry" />
        </mxCell>
        <mxCell id="BwX4vjp6zsM9y9sXOh-W-78" value="" style="rounded=1;whiteSpace=wrap;html=1;" parent="1" vertex="1">
          <mxGeometry x="60" y="670" width="170" height="30" as="geometry" />
        </mxCell>
        <mxCell id="BwX4vjp6zsM9y9sXOh-W-80" value="" style="rounded=1;whiteSpace=wrap;html=1;" parent="1" vertex="1">
          <mxGeometry x="60" y="630" width="170" height="30" as="geometry" />
        </mxCell>
        <mxCell id="BwX4vjp6zsM9y9sXOh-W-81" value="" style="rounded=1;whiteSpace=wrap;html=1;" parent="1" vertex="1">
          <mxGeometry x="60" y="750" width="170" height="30" as="geometry" />
        </mxCell>
        <mxCell id="BwX4vjp6zsM9y9sXOh-W-82" value="the best authors" style="text;html=1;strokeColor=none;fillColor=none;align=center;verticalAlign=middle;whiteSpace=wrap;rounded=0;" parent="1" vertex="1">
          <mxGeometry x="80" y="230" width="130" height="40" as="geometry" />
        </mxCell>
        <mxCell id="BwX4vjp6zsM9y9sXOh-W-83" value="" style="endArrow=none;html=1;" parent="1" edge="1">
          <mxGeometry width="50" height="50" relative="1" as="geometry">
            <mxPoint x="50" y="450" as="sourcePoint" />
            <mxPoint x="240" y="450" as="targetPoint" />
            <Array as="points">
              <mxPoint x="190" y="450" />
            </Array>
          </mxGeometry>
        </mxCell>
        <mxCell id="BwX4vjp6zsM9y9sXOh-W-92" value="" style="rounded=1;whiteSpace=wrap;html=1;" parent="1" vertex="1">
          <mxGeometry x="60" y="470" width="170" height="30" as="geometry" />
        </mxCell>
        <mxCell id="BwX4vjp6zsM9y9sXOh-W-93" value="" style="rounded=1;whiteSpace=wrap;html=1;" parent="1" vertex="1">
          <mxGeometry x="60" y="510" width="170" height="30" as="geometry" />
        </mxCell>
        <mxCell id="BwX4vjp6zsM9y9sXOh-W-94" value="" style="rounded=1;whiteSpace=wrap;html=1;" parent="1" vertex="1">
          <mxGeometry x="60" y="550" width="170" height="30" as="geometry" />
        </mxCell>
        <mxCell id="BwX4vjp6zsM9y9sXOh-W-95" value="" style="rounded=1;whiteSpace=wrap;html=1;" parent="1" vertex="1">
          <mxGeometry x="60" y="590" width="170" height="30" as="geometry" />
        </mxCell>
        <mxCell id="BwX4vjp6zsM9y9sXOh-W-97" value="" style="rounded=1;whiteSpace=wrap;html=1;" parent="1" vertex="1">
          <mxGeometry x="360" y="610" width="90" height="170" as="geometry" />
        </mxCell>
        <mxCell id="BwX4vjp6zsM9y9sXOh-W-100" value="" style="rounded=1;whiteSpace=wrap;html=1;" parent="1" vertex="1">
          <mxGeometry x="260" y="230" width="90" height="170" as="geometry" />
        </mxCell>
        <mxCell id="BwX4vjp6zsM9y9sXOh-W-101" value="" style="rounded=1;whiteSpace=wrap;html=1;" parent="1" vertex="1">
          <mxGeometry x="360" y="230" width="90" height="170" as="geometry" />
        </mxCell>
        <mxCell id="BwX4vjp6zsM9y9sXOh-W-102" value="" style="rounded=1;whiteSpace=wrap;html=1;" parent="1" vertex="1">
          <mxGeometry x="460" y="230" width="90" height="170" as="geometry" />
        </mxCell>
        <mxCell id="BwX4vjp6zsM9y9sXOh-W-103" value="" style="rounded=1;whiteSpace=wrap;html=1;" parent="1" vertex="1">
          <mxGeometry x="560" y="230" width="90" height="170" as="geometry" />
        </mxCell>
        <mxCell id="BwX4vjp6zsM9y9sXOh-W-104" value="" style="rounded=1;whiteSpace=wrap;html=1;" parent="1" vertex="1">
          <mxGeometry x="560" y="415" width="90" height="170" as="geometry" />
        </mxCell>
        <mxCell id="BwX4vjp6zsM9y9sXOh-W-105" value="" style="rounded=1;whiteSpace=wrap;html=1;" parent="1" vertex="1">
          <mxGeometry x="460" y="420" width="90" height="170" as="geometry" />
        </mxCell>
        <mxCell id="BwX4vjp6zsM9y9sXOh-W-106" value="" style="rounded=1;whiteSpace=wrap;html=1;" parent="1" vertex="1">
          <mxGeometry x="360" y="420" width="90" height="170" as="geometry" />
        </mxCell>
        <mxCell id="BwX4vjp6zsM9y9sXOh-W-107" value="" style="rounded=1;whiteSpace=wrap;html=1;" parent="1" vertex="1">
          <mxGeometry x="260" y="420" width="90" height="170" as="geometry" />
        </mxCell>
        <mxCell id="BwX4vjp6zsM9y9sXOh-W-108" value="" style="rounded=1;whiteSpace=wrap;html=1;" parent="1" vertex="1">
          <mxGeometry x="660" y="230" width="90" height="170" as="geometry" />
        </mxCell>
        <mxCell id="BwX4vjp6zsM9y9sXOh-W-109" value="" style="rounded=1;whiteSpace=wrap;html=1;" parent="1" vertex="1">
          <mxGeometry x="660" y="420" width="90" height="170" as="geometry" />
        </mxCell>
        <mxCell id="BwX4vjp6zsM9y9sXOh-W-110" value="" style="rounded=1;whiteSpace=wrap;html=1;" parent="1" vertex="1">
          <mxGeometry x="560" y="610" width="90" height="170" as="geometry" />
        </mxCell>
      </root>
    </mxGraphModel>
  </diagram>
</mxfile>
